<mxfile host="app.diagrams.net" modified="2024-02-25T13:28:32.942Z" agent="Mozilla/5.0 (Windows NT 10.0; Win64; x64) AppleWebKit/537.36 (KHTML, like Gecko) Chrome/121.0.0.0 Safari/537.36" etag="CE5ka2YY-hABDqweYYwT" version="23.1.6" type="github">
  <diagram name="Page-1" id="y76if0_a0gRLJXhTBDUg">
    <mxGraphModel dx="2262" dy="1469" grid="1" gridSize="10" guides="1" tooltips="1" connect="1" arrows="1" fold="1" page="1" pageScale="1" pageWidth="827" pageHeight="1169" math="0" shadow="0">
      <root>
        <mxCell id="0" />
        <mxCell id="1" parent="0" />
        <mxCell id="FcyF-uNpUyBi339fCAAt-11" style="edgeStyle=orthogonalEdgeStyle;rounded=0;orthogonalLoop=1;jettySize=auto;html=1;exitX=0.5;exitY=1;exitDx=0;exitDy=0;exitPerimeter=0;entryX=0.5;entryY=0;entryDx=0;entryDy=0;" edge="1" parent="1" source="FcyF-uNpUyBi339fCAAt-2" target="FcyF-uNpUyBi339fCAAt-3">
          <mxGeometry relative="1" as="geometry" />
        </mxCell>
        <mxCell id="FcyF-uNpUyBi339fCAAt-2" value="BEGIN" style="strokeWidth=2;html=1;shape=mxgraph.flowchart.terminator;whiteSpace=wrap;rounded=0;" vertex="1" parent="1">
          <mxGeometry x="293" y="30" width="140" height="60" as="geometry" />
        </mxCell>
        <mxCell id="FcyF-uNpUyBi339fCAAt-12" style="edgeStyle=orthogonalEdgeStyle;rounded=0;orthogonalLoop=1;jettySize=auto;html=1;exitX=0.5;exitY=1;exitDx=0;exitDy=0;" edge="1" parent="1" source="FcyF-uNpUyBi339fCAAt-3" target="FcyF-uNpUyBi339fCAAt-4">
          <mxGeometry relative="1" as="geometry" />
        </mxCell>
        <mxCell id="FcyF-uNpUyBi339fCAAt-3" value="IMPORT random" style="rounded=0;whiteSpace=wrap;html=1;" vertex="1" parent="1">
          <mxGeometry x="293" y="110" width="140" height="60" as="geometry" />
        </mxCell>
        <mxCell id="FcyF-uNpUyBi339fCAAt-13" style="edgeStyle=orthogonalEdgeStyle;rounded=0;orthogonalLoop=1;jettySize=auto;html=1;exitX=0.5;exitY=1;exitDx=0;exitDy=0;entryX=0.5;entryY=0;entryDx=0;entryDy=0;" edge="1" parent="1" source="FcyF-uNpUyBi339fCAAt-4" target="FcyF-uNpUyBi339fCAAt-5">
          <mxGeometry relative="1" as="geometry" />
        </mxCell>
        <mxCell id="FcyF-uNpUyBi339fCAAt-4" value="guesses = 0" style="rounded=0;whiteSpace=wrap;html=1;" vertex="1" parent="1">
          <mxGeometry x="293" y="190" width="140" height="60" as="geometry" />
        </mxCell>
        <mxCell id="FcyF-uNpUyBi339fCAAt-14" style="edgeStyle=orthogonalEdgeStyle;rounded=0;orthogonalLoop=1;jettySize=auto;html=1;exitX=0.5;exitY=1;exitDx=0;exitDy=0;entryX=0.5;entryY=0;entryDx=0;entryDy=0;" edge="1" parent="1" source="FcyF-uNpUyBi339fCAAt-5" target="FcyF-uNpUyBi339fCAAt-6">
          <mxGeometry relative="1" as="geometry" />
        </mxCell>
        <mxCell id="FcyF-uNpUyBi339fCAAt-5" value="number = RANDOM number between 1 to 4" style="rounded=0;whiteSpace=wrap;html=1;" vertex="1" parent="1">
          <mxGeometry x="293" y="265" width="140" height="60" as="geometry" />
        </mxCell>
        <mxCell id="FcyF-uNpUyBi339fCAAt-15" style="edgeStyle=orthogonalEdgeStyle;rounded=0;orthogonalLoop=1;jettySize=auto;html=1;exitX=0.5;exitY=1;exitDx=0;exitDy=0;entryX=0.5;entryY=0;entryDx=0;entryDy=0;" edge="1" parent="1" source="FcyF-uNpUyBi339fCAAt-6" target="FcyF-uNpUyBi339fCAAt-8">
          <mxGeometry relative="1" as="geometry" />
        </mxCell>
        <mxCell id="FcyF-uNpUyBi339fCAAt-6" value="INPUT name" style="shape=parallelogram;perimeter=parallelogramPerimeter;whiteSpace=wrap;html=1;fixedSize=1;rounded=0;" vertex="1" parent="1">
          <mxGeometry x="293" y="340" width="140" height="60" as="geometry" />
        </mxCell>
        <mxCell id="FcyF-uNpUyBi339fCAAt-16" style="edgeStyle=orthogonalEdgeStyle;rounded=0;orthogonalLoop=1;jettySize=auto;html=1;exitX=0.5;exitY=1;exitDx=0;exitDy=0;entryX=0.5;entryY=0;entryDx=0;entryDy=0;" edge="1" parent="1" source="FcyF-uNpUyBi339fCAAt-8" target="FcyF-uNpUyBi339fCAAt-9">
          <mxGeometry relative="1" as="geometry" />
        </mxCell>
        <mxCell id="FcyF-uNpUyBi339fCAAt-8" value="DISPLAY name&lt;br&gt;&#39;guess a number&#39;" style="shape=parallelogram;perimeter=parallelogramPerimeter;whiteSpace=wrap;html=1;fixedSize=1;rounded=0;" vertex="1" parent="1">
          <mxGeometry x="293" y="420" width="140" height="60" as="geometry" />
        </mxCell>
        <mxCell id="FcyF-uNpUyBi339fCAAt-9" value="INPUT guess" style="shape=parallelogram;perimeter=parallelogramPerimeter;whiteSpace=wrap;html=1;fixedSize=1;rounded=0;" vertex="1" parent="1">
          <mxGeometry x="293" y="500" width="140" height="60" as="geometry" />
        </mxCell>
        <mxCell id="FcyF-uNpUyBi339fCAAt-10" style="edgeStyle=orthogonalEdgeStyle;rounded=0;orthogonalLoop=1;jettySize=auto;html=1;exitX=0.5;exitY=1;exitDx=0;exitDy=0;" edge="1" parent="1" source="FcyF-uNpUyBi339fCAAt-6" target="FcyF-uNpUyBi339fCAAt-6">
          <mxGeometry relative="1" as="geometry" />
        </mxCell>
        <mxCell id="FcyF-uNpUyBi339fCAAt-52" style="edgeStyle=orthogonalEdgeStyle;rounded=0;orthogonalLoop=1;jettySize=auto;html=1;exitX=0;exitY=0.5;exitDx=0;exitDy=0;exitPerimeter=0;entryX=0;entryY=0.5;entryDx=0;entryDy=0;entryPerimeter=0;" edge="1" parent="1" source="FcyF-uNpUyBi339fCAAt-17" target="FcyF-uNpUyBi339fCAAt-50">
          <mxGeometry relative="1" as="geometry">
            <Array as="points">
              <mxPoint x="53" y="640" />
              <mxPoint x="53" y="1471" />
              <mxPoint x="303" y="1471" />
            </Array>
          </mxGeometry>
        </mxCell>
        <mxCell id="FcyF-uNpUyBi339fCAAt-17" value="WHILE guess != number" style="strokeWidth=2;html=1;shape=mxgraph.flowchart.decision;whiteSpace=wrap;rounded=0;" vertex="1" parent="1">
          <mxGeometry x="298" y="580" width="130" height="120" as="geometry" />
        </mxCell>
        <mxCell id="FcyF-uNpUyBi339fCAAt-18" value="IF guesses &amp;lt; 6" style="strokeWidth=2;html=1;shape=mxgraph.flowchart.decision;whiteSpace=wrap;rounded=0;" vertex="1" parent="1">
          <mxGeometry x="298" y="720" width="130" height="120" as="geometry" />
        </mxCell>
        <mxCell id="FcyF-uNpUyBi339fCAAt-19" style="edgeStyle=orthogonalEdgeStyle;rounded=0;orthogonalLoop=1;jettySize=auto;html=1;exitX=0.5;exitY=1;exitDx=0;exitDy=0;entryX=0.5;entryY=0;entryDx=0;entryDy=0;entryPerimeter=0;" edge="1" parent="1" source="FcyF-uNpUyBi339fCAAt-9" target="FcyF-uNpUyBi339fCAAt-17">
          <mxGeometry relative="1" as="geometry" />
        </mxCell>
        <mxCell id="FcyF-uNpUyBi339fCAAt-20" style="edgeStyle=orthogonalEdgeStyle;rounded=0;orthogonalLoop=1;jettySize=auto;html=1;exitX=0.5;exitY=1;exitDx=0;exitDy=0;exitPerimeter=0;entryX=0.5;entryY=0;entryDx=0;entryDy=0;entryPerimeter=0;" edge="1" parent="1" source="FcyF-uNpUyBi339fCAAt-17" target="FcyF-uNpUyBi339fCAAt-18">
          <mxGeometry relative="1" as="geometry" />
        </mxCell>
        <mxCell id="FcyF-uNpUyBi339fCAAt-42" style="edgeStyle=orthogonalEdgeStyle;rounded=0;orthogonalLoop=1;jettySize=auto;html=1;exitX=0.5;exitY=1;exitDx=0;exitDy=0;entryX=1;entryY=0.5;entryDx=0;entryDy=0;" edge="1" parent="1" source="FcyF-uNpUyBi339fCAAt-21" target="FcyF-uNpUyBi339fCAAt-34">
          <mxGeometry relative="1" as="geometry" />
        </mxCell>
        <mxCell id="FcyF-uNpUyBi339fCAAt-21" value="DISPLAY your guess&lt;br&gt;is too high" style="shape=parallelogram;perimeter=parallelogramPerimeter;whiteSpace=wrap;html=1;fixedSize=1;rounded=0;" vertex="1" parent="1">
          <mxGeometry x="484" y="890" width="140" height="60" as="geometry" />
        </mxCell>
        <mxCell id="FcyF-uNpUyBi339fCAAt-41" style="edgeStyle=orthogonalEdgeStyle;rounded=0;orthogonalLoop=1;jettySize=auto;html=1;exitX=0.5;exitY=1;exitDx=0;exitDy=0;entryX=0;entryY=0.5;entryDx=0;entryDy=0;" edge="1" parent="1" source="FcyF-uNpUyBi339fCAAt-22" target="FcyF-uNpUyBi339fCAAt-34">
          <mxGeometry relative="1" as="geometry" />
        </mxCell>
        <mxCell id="FcyF-uNpUyBi339fCAAt-22" value="DISPLAY your guess&lt;br&gt;is too low" style="shape=parallelogram;perimeter=parallelogramPerimeter;whiteSpace=wrap;html=1;fixedSize=1;rounded=0;" vertex="1" parent="1">
          <mxGeometry x="87" y="890" width="140" height="60" as="geometry" />
        </mxCell>
        <mxCell id="FcyF-uNpUyBi339fCAAt-25" style="edgeStyle=orthogonalEdgeStyle;rounded=0;orthogonalLoop=1;jettySize=auto;html=1;exitX=0;exitY=0.5;exitDx=0;exitDy=0;exitPerimeter=0;entryX=1;entryY=0.5;entryDx=0;entryDy=0;" edge="1" parent="1" source="FcyF-uNpUyBi339fCAAt-24" target="FcyF-uNpUyBi339fCAAt-22">
          <mxGeometry relative="1" as="geometry" />
        </mxCell>
        <mxCell id="FcyF-uNpUyBi339fCAAt-28" style="edgeStyle=orthogonalEdgeStyle;rounded=0;orthogonalLoop=1;jettySize=auto;html=1;exitX=1;exitY=0.5;exitDx=0;exitDy=0;exitPerimeter=0;" edge="1" parent="1" source="FcyF-uNpUyBi339fCAAt-24" target="FcyF-uNpUyBi339fCAAt-21">
          <mxGeometry relative="1" as="geometry" />
        </mxCell>
        <mxCell id="FcyF-uNpUyBi339fCAAt-24" value="IF guesses" style="strokeWidth=2;html=1;shape=mxgraph.flowchart.decision;whiteSpace=wrap;rounded=0;" vertex="1" parent="1">
          <mxGeometry x="297" y="860" width="130" height="120" as="geometry" />
        </mxCell>
        <mxCell id="FcyF-uNpUyBi339fCAAt-26" value="&amp;lt; number" style="text;html=1;align=center;verticalAlign=middle;resizable=0;points=[];autosize=1;strokeColor=none;fillColor=none;" vertex="1" parent="1">
          <mxGeometry x="222" y="890" width="70" height="30" as="geometry" />
        </mxCell>
        <mxCell id="FcyF-uNpUyBi339fCAAt-29" value="&amp;gt; number" style="text;html=1;align=center;verticalAlign=middle;resizable=0;points=[];autosize=1;strokeColor=none;fillColor=none;" vertex="1" parent="1">
          <mxGeometry x="422" y="890" width="70" height="30" as="geometry" />
        </mxCell>
        <mxCell id="FcyF-uNpUyBi339fCAAt-33" style="edgeStyle=orthogonalEdgeStyle;rounded=0;orthogonalLoop=1;jettySize=auto;html=1;exitX=0.5;exitY=1;exitDx=0;exitDy=0;exitPerimeter=0;entryX=0.5;entryY=0;entryDx=0;entryDy=0;entryPerimeter=0;" edge="1" parent="1" source="FcyF-uNpUyBi339fCAAt-18" target="FcyF-uNpUyBi339fCAAt-24">
          <mxGeometry relative="1" as="geometry" />
        </mxCell>
        <mxCell id="FcyF-uNpUyBi339fCAAt-43" style="edgeStyle=orthogonalEdgeStyle;rounded=0;orthogonalLoop=1;jettySize=auto;html=1;exitX=0.5;exitY=1;exitDx=0;exitDy=0;entryX=0.5;entryY=0;entryDx=0;entryDy=0;" edge="1" parent="1" source="FcyF-uNpUyBi339fCAAt-34" target="FcyF-uNpUyBi339fCAAt-37">
          <mxGeometry relative="1" as="geometry" />
        </mxCell>
        <mxCell id="FcyF-uNpUyBi339fCAAt-34" value="guesses = guesses + 1" style="rounded=0;whiteSpace=wrap;html=1;" vertex="1" parent="1">
          <mxGeometry x="297" y="1030" width="140" height="60" as="geometry" />
        </mxCell>
        <mxCell id="FcyF-uNpUyBi339fCAAt-44" style="edgeStyle=orthogonalEdgeStyle;rounded=0;orthogonalLoop=1;jettySize=auto;html=1;exitX=0.5;exitY=1;exitDx=0;exitDy=0;" edge="1" parent="1" source="FcyF-uNpUyBi339fCAAt-37" target="FcyF-uNpUyBi339fCAAt-38">
          <mxGeometry relative="1" as="geometry" />
        </mxCell>
        <mxCell id="FcyF-uNpUyBi339fCAAt-37" value="DISPLAY guesses" style="shape=parallelogram;perimeter=parallelogramPerimeter;whiteSpace=wrap;html=1;fixedSize=1;rounded=0;" vertex="1" parent="1">
          <mxGeometry x="292" y="1120" width="140" height="60" as="geometry" />
        </mxCell>
        <mxCell id="FcyF-uNpUyBi339fCAAt-45" style="edgeStyle=orthogonalEdgeStyle;rounded=0;orthogonalLoop=1;jettySize=auto;html=1;exitX=0.5;exitY=1;exitDx=0;exitDy=0;entryX=0.5;entryY=0;entryDx=0;entryDy=0;" edge="1" parent="1" source="FcyF-uNpUyBi339fCAAt-38" target="FcyF-uNpUyBi339fCAAt-39">
          <mxGeometry relative="1" as="geometry" />
        </mxCell>
        <mxCell id="FcyF-uNpUyBi339fCAAt-38" value="DISPLAY take a guess" style="shape=parallelogram;perimeter=parallelogramPerimeter;whiteSpace=wrap;html=1;fixedSize=1;rounded=0;" vertex="1" parent="1">
          <mxGeometry x="292" y="1210" width="140" height="60" as="geometry" />
        </mxCell>
        <mxCell id="FcyF-uNpUyBi339fCAAt-39" value="INPUT guess" style="shape=parallelogram;perimeter=parallelogramPerimeter;whiteSpace=wrap;html=1;fixedSize=1;rounded=0;" vertex="1" parent="1">
          <mxGeometry x="292" y="1300" width="140" height="60" as="geometry" />
        </mxCell>
        <mxCell id="FcyF-uNpUyBi339fCAAt-46" style="edgeStyle=orthogonalEdgeStyle;rounded=0;orthogonalLoop=1;jettySize=auto;html=1;exitX=1;exitY=0.75;exitDx=0;exitDy=0;entryX=1;entryY=0.5;entryDx=0;entryDy=0;entryPerimeter=0;" edge="1" parent="1" source="FcyF-uNpUyBi339fCAAt-39" target="FcyF-uNpUyBi339fCAAt-17">
          <mxGeometry relative="1" as="geometry">
            <Array as="points">
              <mxPoint x="673" y="1342" />
              <mxPoint x="673" y="640" />
            </Array>
          </mxGeometry>
        </mxCell>
        <mxCell id="FcyF-uNpUyBi339fCAAt-47" value="True" style="text;html=1;align=center;verticalAlign=middle;whiteSpace=wrap;rounded=0;" vertex="1" parent="1">
          <mxGeometry x="372" y="690" width="60" height="30" as="geometry" />
        </mxCell>
        <mxCell id="FcyF-uNpUyBi339fCAAt-48" value="True" style="text;html=1;align=center;verticalAlign=middle;whiteSpace=wrap;rounded=0;" vertex="1" parent="1">
          <mxGeometry x="372" y="830" width="60" height="30" as="geometry" />
        </mxCell>
        <mxCell id="FcyF-uNpUyBi339fCAAt-68" style="edgeStyle=orthogonalEdgeStyle;rounded=0;orthogonalLoop=1;jettySize=auto;html=1;exitX=1;exitY=0.5;exitDx=0;exitDy=0;exitPerimeter=0;entryX=0;entryY=0.5;entryDx=0;entryDy=0;" edge="1" parent="1" source="FcyF-uNpUyBi339fCAAt-50" target="FcyF-uNpUyBi339fCAAt-67">
          <mxGeometry relative="1" as="geometry">
            <mxPoint x="643" y="1470.3333333333335" as="targetPoint" />
          </mxGeometry>
        </mxCell>
        <mxCell id="FcyF-uNpUyBi339fCAAt-50" value="If guess = number" style="strokeWidth=2;html=1;shape=mxgraph.flowchart.decision;whiteSpace=wrap;rounded=0;" vertex="1" parent="1">
          <mxGeometry x="297" y="1410" width="130" height="120" as="geometry" />
        </mxCell>
        <mxCell id="FcyF-uNpUyBi339fCAAt-51" style="edgeStyle=orthogonalEdgeStyle;rounded=0;orthogonalLoop=1;jettySize=auto;html=1;exitX=0;exitY=0.5;exitDx=0;exitDy=0;exitPerimeter=0;entryX=0;entryY=0.5;entryDx=0;entryDy=0;entryPerimeter=0;" edge="1" parent="1" source="FcyF-uNpUyBi339fCAAt-18" target="FcyF-uNpUyBi339fCAAt-50">
          <mxGeometry relative="1" as="geometry">
            <mxPoint x="253" y="1460" as="targetPoint" />
            <Array as="points">
              <mxPoint x="53" y="780" />
              <mxPoint x="53" y="1470" />
            </Array>
          </mxGeometry>
        </mxCell>
        <mxCell id="FcyF-uNpUyBi339fCAAt-54" value="False" style="text;html=1;align=center;verticalAlign=middle;whiteSpace=wrap;rounded=0;" vertex="1" parent="1">
          <mxGeometry x="183" y="600" width="60" height="30" as="geometry" />
        </mxCell>
        <mxCell id="FcyF-uNpUyBi339fCAAt-56" value="False" style="text;html=1;align=center;verticalAlign=middle;whiteSpace=wrap;rounded=0;" vertex="1" parent="1">
          <mxGeometry x="187" y="740" width="60" height="30" as="geometry" />
        </mxCell>
        <mxCell id="FcyF-uNpUyBi339fCAAt-60" style="edgeStyle=orthogonalEdgeStyle;rounded=0;orthogonalLoop=1;jettySize=auto;html=1;exitX=1;exitY=0.5;exitDx=0;exitDy=0;exitPerimeter=0;" edge="1" parent="1" source="FcyF-uNpUyBi339fCAAt-57">
          <mxGeometry relative="1" as="geometry">
            <mxPoint x="463" y="1630.25" as="targetPoint" />
          </mxGeometry>
        </mxCell>
        <mxCell id="FcyF-uNpUyBi339fCAAt-64" value="" style="edgeStyle=orthogonalEdgeStyle;rounded=0;orthogonalLoop=1;jettySize=auto;html=1;" edge="1" parent="1" source="FcyF-uNpUyBi339fCAAt-57" target="FcyF-uNpUyBi339fCAAt-63">
          <mxGeometry relative="1" as="geometry" />
        </mxCell>
        <mxCell id="FcyF-uNpUyBi339fCAAt-57" value="If guess = 0" style="strokeWidth=2;html=1;shape=mxgraph.flowchart.decision;whiteSpace=wrap;rounded=0;" vertex="1" parent="1">
          <mxGeometry x="298" y="1570" width="130" height="120" as="geometry" />
        </mxCell>
        <mxCell id="FcyF-uNpUyBi339fCAAt-58" style="edgeStyle=orthogonalEdgeStyle;rounded=0;orthogonalLoop=1;jettySize=auto;html=1;exitX=0.5;exitY=1;exitDx=0;exitDy=0;exitPerimeter=0;entryX=0.5;entryY=0;entryDx=0;entryDy=0;entryPerimeter=0;" edge="1" parent="1" source="FcyF-uNpUyBi339fCAAt-50" target="FcyF-uNpUyBi339fCAAt-57">
          <mxGeometry relative="1" as="geometry" />
        </mxCell>
        <mxCell id="FcyF-uNpUyBi339fCAAt-59" value="True" style="text;html=1;align=center;verticalAlign=middle;resizable=0;points=[];autosize=1;strokeColor=none;fillColor=none;" vertex="1" parent="1">
          <mxGeometry x="368" y="1538" width="50" height="30" as="geometry" />
        </mxCell>
        <mxCell id="FcyF-uNpUyBi339fCAAt-61" value="True" style="text;html=1;align=center;verticalAlign=middle;resizable=0;points=[];autosize=1;strokeColor=none;fillColor=none;" vertex="1" parent="1">
          <mxGeometry x="418" y="1598" width="50" height="30" as="geometry" />
        </mxCell>
        <mxCell id="FcyF-uNpUyBi339fCAAt-65" style="edgeStyle=orthogonalEdgeStyle;rounded=0;orthogonalLoop=1;jettySize=auto;html=1;exitX=0.5;exitY=1;exitDx=0;exitDy=0;entryX=1;entryY=0.5;entryDx=0;entryDy=0;" edge="1" parent="1" source="FcyF-uNpUyBi339fCAAt-62" target="FcyF-uNpUyBi339fCAAt-63">
          <mxGeometry relative="1" as="geometry">
            <Array as="points">
              <mxPoint x="538" y="1760" />
            </Array>
          </mxGeometry>
        </mxCell>
        <mxCell id="FcyF-uNpUyBi339fCAAt-62" value="guesses = guesses + 1" style="rounded=0;whiteSpace=wrap;html=1;" vertex="1" parent="1">
          <mxGeometry x="468" y="1600" width="140" height="60" as="geometry" />
        </mxCell>
        <mxCell id="FcyF-uNpUyBi339fCAAt-63" value="DISPLAY &quot;Good Job!&lt;br&gt;It only took&quot;, guesses,&amp;nbsp; &quot;guesses!&quot;" style="shape=parallelogram;perimeter=parallelogramPerimeter;whiteSpace=wrap;html=1;fixedSize=1;rounded=0;" vertex="1" parent="1">
          <mxGeometry x="259.5" y="1730" width="205" height="60" as="geometry" />
        </mxCell>
        <mxCell id="FcyF-uNpUyBi339fCAAt-66" value="False" style="text;html=1;align=center;verticalAlign=middle;whiteSpace=wrap;rounded=0;" vertex="1" parent="1">
          <mxGeometry x="297" y="1690" width="60" height="30" as="geometry" />
        </mxCell>
        <mxCell id="FcyF-uNpUyBi339fCAAt-67" value="DISPLAY &quot;The number was&quot;, number" style="rounded=0;whiteSpace=wrap;html=1;" vertex="1" parent="1">
          <mxGeometry x="653" y="1440" width="120" height="60" as="geometry" />
        </mxCell>
        <mxCell id="FcyF-uNpUyBi339fCAAt-69" value="False" style="text;html=1;align=center;verticalAlign=middle;whiteSpace=wrap;rounded=0;" vertex="1" parent="1">
          <mxGeometry x="503" y="1436" width="60" height="30" as="geometry" />
        </mxCell>
        <mxCell id="FcyF-uNpUyBi339fCAAt-71" value="END" style="strokeWidth=2;html=1;shape=mxgraph.flowchart.terminator;whiteSpace=wrap;rounded=0;" vertex="1" parent="1">
          <mxGeometry x="292" y="1870" width="140" height="60" as="geometry" />
        </mxCell>
        <mxCell id="FcyF-uNpUyBi339fCAAt-72" style="edgeStyle=orthogonalEdgeStyle;rounded=0;orthogonalLoop=1;jettySize=auto;html=1;exitX=0.5;exitY=1;exitDx=0;exitDy=0;entryX=1;entryY=0.5;entryDx=0;entryDy=0;entryPerimeter=0;" edge="1" parent="1" source="FcyF-uNpUyBi339fCAAt-67" target="FcyF-uNpUyBi339fCAAt-71">
          <mxGeometry relative="1" as="geometry" />
        </mxCell>
        <mxCell id="FcyF-uNpUyBi339fCAAt-73" style="edgeStyle=orthogonalEdgeStyle;rounded=0;orthogonalLoop=1;jettySize=auto;html=1;exitX=0.5;exitY=1;exitDx=0;exitDy=0;entryX=0.5;entryY=0;entryDx=0;entryDy=0;entryPerimeter=0;" edge="1" parent="1" source="FcyF-uNpUyBi339fCAAt-63" target="FcyF-uNpUyBi339fCAAt-71">
          <mxGeometry relative="1" as="geometry" />
        </mxCell>
      </root>
    </mxGraphModel>
  </diagram>
</mxfile>
